# xmcd
#
# Track frame offsets: 
#        150
#        16305
#        30135
#        50970
#        67482
#        83120
#        99200
#        114117
#        130017
#        148665
#        164262
#        177825
#        193217
#        208730
#        226612
#        243905
#        259485
#        276012
#        292342
#        308437
#
# Disc length: 4322 seconds
#
# Revision: 4
# Processed by: cddbd v1.5.2PL0 Copyright (c) Steve Scherf et al.
# Submitted via: ExactAudioCopy v0.99pb5
#
DISCID=1610e014,1b10e014
DTITLE=Various Artist - Die deutsche Schlagerparade - 2001-1 - CD 2
DYEAR=2000
DGENRE=Schlager
TTITLE0=Vicky Leandros and Roland Cabezas - Me quedaré - ich bleib bei d
TTITLE0=ir
TTITLE1=Roland Kaiser - Du bist weg
TTITLE2=Nino de Angelo - Gib mir Zeit
TTITLE3=Tina Frank - Hinterm Horizont geht's weiter
TTITLE4=Münchener Freiheit - Ich komm nicht von dir los
TTITLE5=Vivian Lindt - Viel zu sehr
TTITLE6=Christian Franke - Genau wie du
TTITLE7=Kristina Bach - Männer sind doch schließlich zum Vergnügen da
TTITLE8=Cordalis - Ela Ela
TTITLE9=Simone Christ - Wo immer du bist
TTITLE10=Die Jacob Sisters - Männer Männer Männer
TTITLE11=Hansi Süssenbach - Für'nen Appel und 'n Ei
TTITLE12=Rendezvous - Was wär' die Welt ohne Fantasie
TTITLE13=Christian Theiner feat. Uta Weber - Heimliche Sehnsucht
TTITLE14=Nina Falk - Ich kann sie versteh'n
TTITLE15=Michael Wendler - Alarm Alarm
TTITLE16=Patrick Lindner - Bis dein Herz wieder hier ist
TTITLE17=Tina York - Viel zu nah am Feuer
TTITLE18=Van Dango - Wo bist du, wenn ich träume
TTITLE19=Sandy Wagner - Ohne Liebe wär' hier gar nichts los
EXTD=
EXTT0=
EXTT1=
EXTT2=
EXTT3=
EXTT4=
EXTT5=
EXTT6=
EXTT7=
EXTT8=
EXTT9=
EXTT10=
EXTT11=
EXTT12=
EXTT13=
EXTT14=
EXTT15=
EXTT16=
EXTT17=
EXTT18=
EXTT19=
PLAYORDER=
